<svg width="22" height="22" viewBox="0 0 22 22" fill="none" xmlns="http://www.w3.org/2000/svg">
<path d="M11 0.25C16.9371 0.25 21.75 5.06294 21.75 11C21.75 16.9371 16.9371 21.75 11 21.75C5.06294 21.75 0.25 16.9371 0.25 11C0.25 5.06294 5.06294 0.25 11 0.25Z" fill="white" stroke="#EDEDED" stroke-width="0.5"/>
<path fill-rule="evenodd" clip-rule="evenodd" d="M16.383 11.125C16.383 10.735 16.348 10.36 16.283 10H11.103V12.1275H14.063C13.9355 12.815 13.548 13.3975 12.9655 13.7875V15.1675H14.743C15.783 14.21 16.383 12.8 16.383 11.125Z" fill="#4285F4"/>
<path fill-rule="evenodd" clip-rule="evenodd" d="M11.103 16.4999C12.588 16.4999 13.833 16.0074 14.743 15.1674L12.9655 13.7874C12.473 14.1174 11.843 14.3124 11.103 14.3124C9.6705 14.3124 8.45799 13.3449 8.02549 12.0449H6.18799V13.4699C7.09299 15.2674 8.95299 16.4999 11.103 16.4999Z" fill="#34A853"/>
<path fill-rule="evenodd" clip-rule="evenodd" d="M8.02553 12.045C7.91553 11.715 7.85303 11.3625 7.85303 11C7.85303 10.6375 7.91553 10.285 8.02553 9.95503V8.53003H6.18803C5.81553 9.27253 5.60303 10.1125 5.60303 11C5.60303 11.8875 5.81553 12.7275 6.18803 13.47L8.02553 12.045Z" fill="#FBBC05"/>
<path fill-rule="evenodd" clip-rule="evenodd" d="M11.103 7.6875C11.9105 7.6875 12.6355 7.96501 13.2055 8.51001L14.783 6.9325C13.8305 6.045 12.5855 5.5 11.103 5.5C8.95299 5.5 7.09299 6.7325 6.18799 8.53001L8.02549 9.95501C8.45799 8.65501 9.6705 7.6875 11.103 7.6875Z" fill="#EA4335"/>
</svg>
