<svg width="26" height="24" viewBox="0 0 26 24" fill="none" xmlns="http://www.w3.org/2000/svg">
<path d="M10.7692 14.3668C10.1542 13.7928 9.77979 13.0128 9.77979 12.1378C9.77979 10.3848 11.2901 8.9718 13.1641 8.9718C14.0914 8.9718 14.945 9.3228 15.5494 9.8968" stroke="#767676" stroke-width="1.5" stroke-linecap="round" stroke-linejoin="round"/>
<path d="M16.4855 12.699C16.2373 13.989 15.1506 15.007 13.7719 15.241" stroke="#767676" stroke-width="1.5" stroke-linecap="round" stroke-linejoin="round"/>
<path d="M7.44691 17.4724C5.74941 16.2264 4.31184 14.4064 3.27002 12.1374C4.32253 9.85835 5.76974 8.02835 7.47793 6.77235C9.17543 5.51635 11.1339 4.83435 13.1641 4.83435C15.206 4.83435 17.1634 5.52635 18.8716 6.79135" stroke="#767676" stroke-width="1.5" stroke-linecap="round" stroke-linejoin="round"/>
<path d="M21.1307 8.99084C21.8666 9.90484 22.5137 10.9598 23.0582 12.1368C20.9542 16.6938 17.2362 19.4388 13.1641 19.4388C12.241 19.4388 11.3308 19.2988 10.4558 19.0258" stroke="#767676" stroke-width="1.5" stroke-linecap="round" stroke-linejoin="round"/>
<path d="M21.6007 4.24963L4.72839 20.0236" stroke="#767676" stroke-width="1.5" stroke-linecap="round" stroke-linejoin="round"/>
</svg>
